<svg width="20" height="20" viewBox="0 0 20 20" fill="none" xmlns="http://www.w3.org/2000/svg">
<path d="M10.185 16.5459C10.035 16.6959 9.76833 16.7209 9.59333 16.5459C9.44333 16.3959 9.41833 16.1292 9.59333 15.9542L12.4183 13.1292L11.2433 11.9542L8.41833 14.7792C8.26 14.9459 7.99333 14.9376 7.82666 14.7792C7.65166 14.6042 7.67666 14.3376 7.82666 14.1876L10.6517 11.3626L9.47666 10.1876L6.65166 13.0126C6.50166 13.1626 6.235 13.1876 6.06 13.0126C5.90166 12.8542 5.90166 12.5876 6.06 12.4209L8.885 9.5959L7.70166 8.4209L4.87666 11.2459C4.72666 11.3959 4.46 11.4209 4.285 11.2459C4.12666 11.0792 4.12666 10.8209 4.285 10.6542L7.935 7.00423L9.49333 8.55423C10.285 9.3459 11.6517 9.33757 12.4433 8.55423C13.26 7.73757 13.26 6.4209 12.4433 5.60423L10.8933 4.05423L11.1267 3.8209C11.7767 3.1709 12.835 3.1709 13.485 3.8209L17.0183 7.35423C17.6683 8.00423 17.6683 9.06256 17.0183 9.71256L10.185 16.5459ZM18.1933 10.8959C19.4933 9.5959 19.4933 7.48756 18.1933 6.17923L14.66 2.6459C13.36 1.3459 11.2517 1.3459 9.94333 2.6459L9.71 2.87923L9.47666 2.6459C8.17666 1.3459 6.06833 1.3459 4.76 2.6459L1.81 5.5959C0.626664 6.77923 0.51833 8.6209 1.47666 9.9209L2.685 8.71256C2.36 8.08756 2.46833 7.2959 2.99333 6.7709L5.94333 3.8209C6.59333 3.1709 7.65166 3.1709 8.30166 3.8209L11.2683 6.78757C11.4183 6.93757 11.4433 7.20423 11.2683 7.37923C11.0933 7.55423 10.8267 7.52923 10.6767 7.37923L7.935 4.6459L3.10166 9.4709C2.285 10.2792 2.285 11.6042 3.10166 12.4209C3.42666 12.7459 3.84333 12.9459 4.285 13.0042C4.34333 13.4376 4.535 13.8542 4.86833 14.1876C5.20166 14.5209 5.61833 14.7126 6.05166 14.7709C6.11 15.2042 6.30166 15.6209 6.635 15.9542C6.96833 16.2876 7.385 16.4792 7.81833 16.5376C7.87666 16.9876 8.07666 17.3959 8.40166 17.7209C8.79333 18.1126 9.31833 18.3292 9.87666 18.3292C10.435 18.3292 10.96 18.1126 11.3517 17.7209L18.1933 10.8959Z" fill="currentColor"/>
</svg>
