<?xml version="1.0" encoding="UTF-8" standalone="no"?><!DOCTYPE svg PUBLIC "-//W3C//DTD SVG 1.1//EN" "http://www.w3.org/Graphics/SVG/1.1/DTD/svg11.dtd"><svg width="100%" height="100%" viewBox="0 0 237 237" version="1.1" xmlns="http://www.w3.org/2000/svg" xmlns:xlink="http://www.w3.org/1999/xlink" xml:space="preserve" xmlns:serif="http://www.serif.com/" style="fill-rule:evenodd;clip-rule:evenodd;stroke-linejoin:round;stroke-miterlimit:2;"><rect id="Artboard2" x="0" y="0" width="236.22" height="236.22" style="fill:none;"/><path d="M202.319,12.849l-168.418,0c-10.526,0 -21.052,9.474 -21.052,21.052l0,31.684c0,7.579 4.526,14.105 10.526,17.789l0,118.945c0,11.579 11.579,21.052 21.052,21.052l147.366,0c9.474,0 21.052,-9.474 21.052,-21.052l0,-118.945c6,-3.684 10.526,-10.21 10.526,-17.789l0,-31.684c0,-11.579 -10.526,-21.052 -21.052,-21.052Zm-10.526,189.47l-147.366,0l0,-115.787l147.366,0l0,115.787Zm10.526,-136.84l-168.418,0l0,-31.578l168.418,0l0,31.578Z" style="fill-rule:nonzero;"/><rect x="86.532" y="118.11" width="63.157" height="21.052" style="fill-rule:nonzero;"/></svg>